<?xml version="1.0" encoding="UTF-8" standalone="no"?>
<!-- Created with Inkscape (http://www.inkscape.org/) -->

<svg
   xmlns:dc="http://purl.org/dc/elements/1.1/"
   xmlns:cc="http://creativecommons.org/ns#"
   xmlns:rdf="http://www.w3.org/1999/02/22-rdf-syntax-ns#"
   xmlns:svg="http://www.w3.org/2000/svg"
   xmlns="http://www.w3.org/2000/svg"
   xmlns:sodipodi="http://sodipodi.sourceforge.net/DTD/sodipodi-0.dtd"
   xmlns:inkscape="http://www.inkscape.org/namespaces/inkscape"
   width="23.955139mm"
   height="13.775378mm"
   viewBox="0 0 23.955139 13.775378"
   version="1.1"
   id="svg1185"
   inkscape:version="0.92.4 (5da689c313, 2019-01-14)"
   sodipodi:docname="tinkerdome_background_pattern.svg">
  <defs
     id="defs1179" />
  <sodipodi:namedview
     id="base"
     pagecolor="#ffffff"
     bordercolor="#666666"
     borderopacity="1.0"
     inkscape:pageopacity="0.0"
     inkscape:pageshadow="2"
     inkscape:zoom="0.35"
     inkscape:cx="882.41764"
     inkscape:cy="-375.12794"
     inkscape:document-units="mm"
     inkscape:current-layer="layer1"
     showgrid="false"
     fit-margin-top="0"
     fit-margin-left="0"
     fit-margin-right="0"
     fit-margin-bottom="0"
     showborder="false"
     inkscape:window-width="1366"
     inkscape:window-height="705"
     inkscape:window-x="-8"
     inkscape:window-y="-8"
     inkscape:window-maximized="1" />
  <metadata
     id="metadata1182">
    <rdf:RDF>
      <cc:Work
         rdf:about="">
        <dc:format>image/svg+xml</dc:format>
        <dc:type
           rdf:resource="http://purl.org/dc/dcmitype/StillImage" />
        <dc:title></dc:title>
      </cc:Work>
    </rdf:RDF>
  </metadata>
  <g
     inkscape:label="Layer 1"
     inkscape:groupmode="layer"
     id="layer1"
     transform="translate(379.37181,-35.805353)">
    <path
       inkscape:connector-curvature="0"
       style="opacity:1;fill:#00aa44;fill-opacity:1;stroke:none;stroke-width:39.9679184;stroke-miterlimit:4;stroke-dasharray:none;stroke-opacity:1"
       d="m -379.37181,35.805353 v 13.775378 h 23.95514 V 35.805353 Z"
       id="rect1153-9" />
    <path
       inkscape:connector-curvature="0"
       style="color:#000000;font-style:normal;font-variant:normal;font-weight:normal;font-stretch:normal;font-size:medium;line-height:normal;font-family:sans-serif;font-variant-ligatures:normal;font-variant-position:normal;font-variant-caps:normal;font-variant-numeric:normal;font-variant-alternates:normal;font-feature-settings:normal;text-indent:0;text-align:start;text-decoration:none;text-decoration-line:none;text-decoration-style:solid;text-decoration-color:#000000;letter-spacing:normal;word-spacing:normal;text-transform:none;writing-mode:lr-tb;direction:ltr;text-orientation:mixed;dominant-baseline:auto;baseline-shift:baseline;text-anchor:start;white-space:normal;shape-padding:0;clip-rule:nonzero;display:inline;overflow:visible;visibility:visible;opacity:0.206;isolation:auto;mix-blend-mode:normal;color-interpolation:sRGB;color-interpolation-filters:linearRGB;solid-color:#000000;solid-opacity:1;vector-effect:none;fill:#ffffff;fill-opacity:1;fill-rule:nonzero;stroke:none;stroke-width:0.2645824px;stroke-linecap:butt;stroke-linejoin:miter;stroke-miterlimit:4;stroke-dasharray:none;stroke-dashoffset:0;stroke-opacity:1;color-rendering:auto;image-rendering:auto;shape-rendering:auto;text-rendering:auto;enable-background:accumulate"
       d="m -376.20353,35.805353 v 3.166221 h -3.16828 v 0.265615 h 3.16828 v 3.167751 h -3.16828 v 0.264583 h 3.16828 V 45.8373 h -3.16828 v 0.265112 h 3.16828 v 3.167751 h -3.16828 v 0.268208 h 3.16828 v 0.04236 h 0.26355 v -0.04236 h 3.16778 v 0.04236 h 0.26561 v -0.04236 h 3.16622 v 0.04236 h 0.26561 v -0.04236 h 3.16775 v 0.04236 h 0.26356 v -0.04236 h 3.16828 v 0.04236 h 0.26355 v -0.04236 h 3.16777 v 0.04236 h 0.26562 v -0.04236 h 3.16622 v 0.04236 h 0.19534 V 35.805353 h -0.19534 v 3.166221 h -3.16622 v -3.166221 h -0.26562 v 3.166221 h -3.16777 v -3.166221 h -0.26355 v 3.166221 h -3.16828 v -3.166221 h -0.26356 v 3.166221 h -3.16775 v -3.166221 h -0.26561 v 3.166221 h -3.16622 v -3.166221 h -0.26561 v 3.166221 h -3.16778 v -3.166221 z m 0.26355,3.431836 h 3.16778 v 3.167751 h -3.16778 z m 3.43339,0 h 3.16622 v 3.167751 h -3.16622 z m 3.43183,0 h 3.16775 v 3.167751 h -3.16775 z m 3.43131,0 h 3.16828 v 3.167751 h -3.16828 z m 3.43183,0 h 3.16777 v 3.167751 h -3.16777 z m 3.43339,0 h 3.16622 v 3.167751 h -3.16622 z m -17.16175,3.432334 h 3.16778 V 45.8373 h -3.16778 z m 3.43339,0 h 3.16622 V 45.8373 h -3.16622 z m 3.43183,0 h 3.16775 V 45.8373 h -3.16775 z m 3.43131,0 h 3.16828 V 45.8373 h -3.16828 z m 3.43183,0 h 3.16777 V 45.8373 h -3.16777 z m 3.43339,0 h 3.16622 V 45.8373 h -3.16622 z m -17.16175,3.432889 h 3.16778 v 3.167751 h -3.16778 z m 3.43339,0 h 3.16622 v 3.167751 h -3.16622 z m 3.43183,0 h 3.16775 v 3.167751 h -3.16775 z m 3.43131,0 h 3.16828 v 3.167751 h -3.16828 z m 3.43183,0 h 3.16777 v 3.167751 h -3.16777 z m 3.43339,0 h 3.16622 v 3.167751 h -3.16622 z"
       id="path1155-7" />
  </g>
</svg>
